<svg xmlns="http://www.w3.org/2000/svg" version="1.1" xmlns:xlink="http://www.w3.org/1999/xlink" xmlns:svgjs="http://svgjs.dev/svgjs" width="1000" height="474" viewBox="0 0 1000 474"><g transform="matrix(1,0,0,1,-0.6060202438529245,-0.3925689864260562)"><svg viewBox="0 0 396 188" data-background-color="#ffffff" preserveAspectRatio="xMidYMid meet" height="474" width="1000" xmlns="http://www.w3.org/2000/svg" xmlns:xlink="http://www.w3.org/1999/xlink"><g id="tight-bounds" transform="matrix(1,0,0,1,0.23998413409100294,0.1557081063182295)"><svg viewBox="0 0 395.52 187.68858942649172" height="187.68858942649172" width="395.52"><g><svg viewBox="0 0 395.52 187.68858942649172" height="187.68858942649172" width="395.52"><g><svg viewBox="0 0 395.52 187.68858942649172" height="187.68858942649172" width="395.52"><g id="textblocktransform"><svg viewBox="0 0 395.52 187.68858942649172" height="187.68858942649172" width="395.52" id="textblock"><g><svg viewBox="0 0 395.52 101.2302567027952" height="101.2302567027952" width="395.52"><g><svg viewBox="0 0 395.52 101.2302567027952" height="101.2302567027952" width="395.52"><g transform="matrix(1,0,0,1,0,0)"><svg width="395.52" viewBox="4.960000038146973 -32.66999816894531 128.37998962402344 32.869998931884766" height="101.2302567027952" data-palette-color="#ca3433"><path d="M4.96 0L4.96-32.57Q7.4-32.47 7.91-32.47L7.91-32.47 9.67-32.47Q10.96-32.47 11.74-32.67L11.74-32.67 11.72 0 4.96 0ZM27.98 0L25.66 0Q22.07 0 20.9 0.15L20.9 0.15 20.9-32.62Q21.48-32.47 23.33-32.47 25.17-32.47 27.61-32.57L27.61-32.57 27.61-5.86 32.66-5.86Q34.86-5.86 36.18-6.01L36.18-6.01Q36.01-0.29 36.01-0.07L36.01-0.07 36.01 0.17Q33.62 0 27.98 0L27.98 0ZM48.36-13.79L48.36 0.15Q46.02 0 42.79 0L42.79 0 42.01 0 42.01-32.59Q43.53-32.47 44.16-32.47L44.16-32.47 45.16-32.47Q47.09-32.47 48.36-32.67L48.36-32.67 48.36-19.65 59.83-19.65 59.83-32.59Q61.86-32.47 63.78-32.47 65.69-32.47 66.18-32.67L66.18-32.67 66.18 0.15Q65.01 0 61.54 0L61.54 0 59.83 0 59.83-13.79 48.36-13.79ZM79.73-7.03L77.43 0.2Q75.33 0 72.53 0L72.53 0 70.6 0 81.22-29.76Q81.93-31.76 81.93-32.09 81.93-32.42 81.9-32.5L81.9-32.5 81.93-32.54Q83.51-32.47 85.3-32.47L85.3-32.47Q86.76-32.47 88.81-32.52L88.81-32.52 88.84-32.47Q88.79-32.37 88.79-32.2L88.79-32.2Q88.79-31.74 89.52-29.74L89.52-29.74 100.36 0.07Q99.87 0.05 99.21 0.05L99.21 0.05Q99.21 0.05 97.94 0L97.94 0Q97.33 0 96.84 0L96.84 0 93.06 0 90.76-7.03 79.73-7.03ZM81.58-12.89L88.86-12.89 85.17-24.24 81.58-12.89ZM110.88-20.58L110.88 0.15Q109.71 0 106.36 0L106.36 0 104.41 0 104.41-32.57Q105.97-32.47 107.85-32.47 109.73-32.47 110.51-32.67L110.51-32.67 118.72-18.73 126.6-32.67Q127.38-32.47 129.58-32.47 131.78-32.47 133.34-32.57L133.34-32.57 133.34 0 131.39 0Q128.04 0 126.87 0.15L126.87 0.15 126.87-21.73 118.89-7.45 110.88-20.58Z" opacity="1" transform="matrix(1,0,0,1,0,0)" fill="#ca3433" class="undefined-text-0" data-fill-palette-color="primary" id="text-0"></path></svg></g></svg></g></svg></g><g transform="matrix(1,0,0,1,78.31875943566816,125.12829078416428)"><svg viewBox="0 0 238.88248112866367 62.56029864232743" height="62.56029864232743" width="238.88248112866367"><g transform="matrix(1,0,0,1,0,0)"><svg width="238.88248112866367" viewBox="2.8499999046325684 -35.349998474121094 136.6899871826172 35.79999923706055" height="62.56029864232743" data-palette-color="#ca3433"><path d="M18.55-6.5L18.55-6.5Q18.55-3.35 16.38-1.53 14.2 0.3 10.4 0.3L10.4 0.3Q5.8 0.3 3-1.2L3-1.2 3-4.35Q6.35-2.45 10.2-2.45L10.2-2.45Q12.75-2.45 14.08-3.5 15.4-4.55 15.4-6.25L15.4-6.25Q15.4-8.25 14.03-9.35 12.65-10.45 9.5-11.7L9.5-11.7Q6.45-12.9 4.65-14.5 2.85-16.1 2.85-18.9L2.85-18.9Q2.85-21.95 5.1-23.78 7.35-25.6 10.75-25.6L10.75-25.6Q14.85-25.6 17.05-24.45L17.05-24.45 17.05-21.4Q14.7-22.75 10.7-22.75L10.7-22.75Q8.5-22.75 7.23-21.73 5.95-20.7 5.95-19.05L5.95-19.05Q5.95-18.05 6.33-17.3 6.7-16.55 7.63-15.93 8.55-15.3 9.2-15 9.85-14.7 11.3-14.1L11.3-14.1Q14.8-12.7 16.68-11.03 18.55-9.35 18.55-6.5ZM36.25-3.8L36.25-0.7Q34.8 0.25 32.9 0.25L32.9 0.25Q25.7 0.25 25.7-7.15L25.7-7.15 25.7-22.75 21.55-22.75 21.55-25.35 25.7-25.35 25.7-31.7 28.8-31.7 28.8-25.35 36.05-25.35 36.05-22.75 28.8-22.75 28.8-7Q28.8-2.65 32.85-2.65L32.85-2.65Q34.85-2.65 36.25-3.8L36.25-3.8ZM64.3-12.55L64.3-12.55Q64.3-6.9 61.12-3.23 57.95 0.45 52.4 0.45L52.4 0.45Q47.05 0.45 43.9-3.25 40.75-6.95 40.75-12.55L40.75-12.55Q40.75-18.1 44-21.9 47.25-25.7 52.4-25.7L52.4-25.7Q58.05-25.7 61.17-21.98 64.3-18.25 64.3-12.55ZM43.95-12.55L43.95-12.55Q43.95-8.4 46.27-5.43 48.6-2.45 52.4-2.45L52.4-2.45Q56.55-2.45 58.82-5.38 61.1-8.3 61.1-12.55L61.1-12.55Q61.1-16.95 58.95-19.88 56.8-22.8 52.4-22.8L52.4-22.8Q48.45-22.8 46.2-19.8 43.95-16.8 43.95-12.55ZM73.39-35.35L73.39 0 70.34 0 70.34-35.35 73.39-35.35ZM88.19-25.35L77.84-13.3 88.54 0 84.74 0 74.14-13.3 84.44-25.35 88.19-25.35ZM111.59-4.35L111.59-1.25Q108.59 0.25 104.59 0.25L104.59 0.25Q98.94 0.25 95.42-3.28 91.89-6.8 91.89-12.55L91.89-12.55Q91.89-18.65 94.99-22.15 98.09-25.65 103.04-25.65L103.04-25.65Q107.69-25.65 110.44-22.6 113.19-19.55 113.19-14L113.19-14Q113.19-12.3 112.99-11.3L112.99-11.3 95.09-11.3Q95.44-7.1 97.99-4.88 100.54-2.65 104.74-2.65L104.74-2.65Q109.04-2.65 111.59-4.35L111.59-4.35ZM102.94-22.8L102.94-22.8Q99.74-22.8 97.59-20.55 95.44-18.3 95.09-14.1L95.09-14.1 110.04-14.1 110.04-15.25Q110.04-18.7 108.12-20.75 106.19-22.8 102.94-22.8ZM121.04-12.35L121.04-12.35Q121.04-8 123.16-5.25 125.29-2.5 128.54-2.5 131.79-2.5 134.14-4.88 136.49-7.25 136.49-12.8L136.49-12.8Q136.49-15.6 135.71-17.68 134.94-19.75 133.71-20.83 132.49-21.9 131.26-22.38 130.04-22.85 128.84-22.85L128.84-22.85Q125.44-22.85 123.24-20.13 121.04-17.4 121.04-12.35ZM139.54-35.35L139.54 0 136.49 0 136.49-3.7Q133.84 0.4 128.64 0.4L128.64 0.4Q123.54 0.4 120.69-3.33 117.84-7.05 117.84-12.4L117.84-12.4Q117.84-18.3 120.89-22.03 123.94-25.75 128.74-25.75L128.74-25.75Q133.69-25.75 136.49-21.55L136.49-21.55 136.49-35.35 139.54-35.35Z" opacity="1" transform="matrix(1,0,0,1,0,0)" fill="#ca3433" class="undefined-text-1" data-fill-palette-color="secondary" id="text-1"></path></svg></g></svg></g></svg></g></svg></g><g></g></svg></g><defs></defs></svg><rect width="395.52" height="187.68858942649172" fill="none" stroke="none" visibility="hidden"></rect></g></svg></g></svg>