{
  "accessors": [
    {
      "bufferView": 2,
      "componentType": 5126,
      "count": 26152,
      "max": [
        13.381965637207031,
        63.6265754699707,
        12.738517761230469
      ],
      "min": [
        -12.497660636901855,
        37.54353332519531,
        6.23893928527832
      ],
      "type": "VEC3"
    },
    {
      "bufferView": 2,
      "byteOffset": 313824,
      "componentType": 5126,
      "count": 26152,
      "max": [
        1.0,
        0.9998968243598938,
        1.0
      ],
      "min": [
        -0.9999495148658752,
        -0.9998868703842163,
        -1.0
      ],
      "type": "VEC3"
    },
    {
      "bufferView": 3,
      "componentType": 5126,
      "count": 26152,
      "max": [
        0.9999450445175171,
        0.9999483227729797,
        0.9998723864555359,
        1.0
      ],
      "min": [
        -0.9999997019767761,
        -0.9998862147331238,
        -0.9999880194664001,
        -1.0
      ],
      "type": "VEC4"
    },
    {
      "bufferView": 1,
      "componentType": 5126,
      "count": 26152,
      "max": [
        0.9990253448486328,
        0.9995093941688538
      ],
      "min": [
        0.0004889058764092624,
        0.0009746551513671875
      ],
      "type": "VEC2"
    },
    {
      "bufferView": 0,
      "componentType": 5125,
      "count": 131664,
      "type": "SCALAR"
    },
    {
      "bufferView": 2,
      "byteOffset": 627648,
      "componentType": 5126,
      "count": 35552,
      "max": [
        51.48030090332031,
        101.01774597167969,
        1.9279929399490356
      ],
      "min": [
        -50.538719177246094,
        0.028139140456914902,
        -12.056206703186035
      ],
      "type": "VEC3"
    },
    {
      "bufferView": 2,
      "byteOffset": 1054272,
      "componentType": 5126,
      "count": 35552,
      "max": [
        0.9999871253967285,
        0.9999967217445374,
        0.9999558329582214
      ],
      "min": [
        -0.999962329864502,
        -0.9999995231628418,
        -0.9999929666519165
      ],
      "type": "VEC3"
    },
    {
      "bufferView": 3,
      "byteOffset": 418432,
      "componentType": 5126,
      "count": 35552,
      "max": [
        0.9999998807907104,
        0.9999958276748657,
        0.9999994039535522,
        1.0
      ],
      "min": [
        -0.999961793422699,
        -0.9999970197677612,
        -0.9999991059303284,
        -1.0
      ],
      "type": "VEC4"
    },
    {
      "bufferView": 1,
      "byteOffset": 209216,
      "componentType": 5126,
      "count": 35552,
      "max": [
        0.9990253448486328,
        0.9996731877326965
      ],
      "min": [
        0.00032612046925351024,
        0.0009746551513671875
      ],
      "type": "VEC2"
    },
    {
      "bufferView": 0,
      "byteOffset": 526656,
      "componentType": 5125,
      "count": 177159,
      "type": "SCALAR"
    },
    {
      "bufferView": 2,
      "byteOffset": 1480896,
      "componentType": 5126,
      "count": 6983,
      "max": [
        48.307220458984375,
        98.76307678222656,
        7.322162628173828
      ],
      "min": [
        -47.37576675415039,
        2.4274966716766357,
        -10.532234191894531
      ],
      "type": "VEC3"
    },
    {
      "bufferView": 2,
      "byteOffset": 1564692,
      "componentType": 5126,
      "count": 6983,
      "max": [
        0.9985159635543823,
        0.987705647945404,
        0.9999999403953552
      ],
      "min": [
        -0.9985159635543823,
        -0.9965816736221313,
        -0.9999999403953552
      ],
      "type": "VEC3"
    },
    {
      "bufferView": 3,
      "byteOffset": 987264,
      "componentType": 5126,
      "count": 6983,
      "max": [
        0.9411076307296753,
        0.9994144439697266,
        0.9216864109039307,
        1.0
      ],
      "min": [
        -0.9067277908325195,
        -0.9750804305076599,
        -0.9995908141136169,
        1.0
      ],
      "type": "VEC4"
    },
    {
      "bufferView": 1,
      "byteOffset": 493632,
      "componentType": 5126,
      "count": 6983,
      "max": [
        0.9990253448486328,
        0.9996744394302368
      ],
      "min": [
        0.0005741242202930152,
        0.0009746551513671875
      ],
      "type": "VEC2"
    },
    {
      "bufferView": 0,
      "byteOffset": 1235292,
      "componentType": 5125,
      "count": 40044,
      "type": "SCALAR"
    },
    {
      "bufferView": 2,
      "byteOffset": 1648488,
      "componentType": 5126,
      "count": 23320,
      "max": [
        47.4907341003418,
        96.92987823486328,
        -3.7955262660980225
      ],
      "min": [
        -46.55078887939453,
        38.14442825317383,
        -12.926952362060547
      ],
      "type": "VEC3"
    },
    {
      "bufferView": 2,
      "byteOffset": 1928328,
      "componentType": 5126,
      "count": 23320,
      "max": [
        0.9999992847442627,
        0.9999246001243591,
        0.9999726414680481
      ],
      "min": [
        -0.9999995231628418,
        -0.9996790885925293,
        -0.9999913573265076
      ],
      "type": "VEC3"
    },
    {
      "bufferView": 3,
      "byteOffset": 1098992,
      "componentType": 5126,
      "count": 23320,
      "max": [
        0.9999999403953552,
        0.9999991655349731,
        0.9998999834060669,
        1.0
      ],
      "min": [
        -0.9999987483024597,
        -0.9999751448631287,
        -0.9992315769195557,
        -1.0
      ],
      "type": "VEC4"
    },
    {
      "bufferView": 1,
      "byteOffset": 549496,
      "componentType": 5126,
      "count": 23320,
      "max": [
        0.9990253448486328,
        0.9995125532150269
      ],
      "min": [
        0.0004964130348525941,
        0.0009746551513671875
      ],
      "type": "VEC2"
    },
    {
      "bufferView": 0,
      "byteOffset": 1395468,
      "componentType": 5125,
      "count": 120672,
      "type": "SCALAR"
    },
    {
      "bufferView": 2,
      "byteOffset": 2208168,
      "componentType": 5126,
      "count": 6519,
      "max": [
        30.258134841918945,
        81.86568450927734,
        -0.310021311044693
      ],
      "min": [
        -29.548873901367188,
        22.0087833404541,
        -5.261373043060303
      ],
      "type": "VEC3"
    },
    {
      "bufferView": 2,
      "byteOffset": 2286396,
      "componentType": 5126,
      "count": 6519,
      "max": [
        0.9904338121414185,
        0.9652270674705505,
        0.9999995231628418
      ],
      "min": [
        -0.993715226650238,
        -0.9995904564857483,
        -0.999999463558197
      ],
      "type": "VEC3"
    },
    {
      "bufferView": 3,
      "byteOffset": 1472112,
      "componentType": 5126,
      "count": 6519,
      "max": [
        0.764268696308136,
        1.0,
        0.9995511770248413,
        1.0
      ],
      "min": [
        -1.0,
        -0.9228901863098145,
        -0.9947194457054138,
        1.0
      ],
      "type": "VEC4"
    },
    {
      "bufferView": 1,
      "byteOffset": 736056,
      "componentType": 5126,
      "count": 6519,
      "max": [
        0.9990253448486328,
        0.9996744394302368
      ],
      "min": [
        0.0006411775830201805,
        0.0009746551513671875
      ],
      "type": "VEC2"
    },
    {
      "bufferView": 0,
      "byteOffset": 1878156,
      "componentType": 5125,
      "count": 38328,
      "type": "SCALAR"
    },
    {
      "bufferView": 2,
      "byteOffset": 2364624,
      "componentType": 5126,
      "count": 17616,
      "max": [
        50.004520416259766,
        100.61840057373047,
        -3.3908872604370117
      ],
      "min": [
        -49.96895217895508,
        0.799774706363678,
        -13.803568840026855
      ],
      "type": "VEC3"
    },
    {
      "bufferView": 2,
      "byteOffset": 2576016,
      "componentType": 5126,
      "count": 17616,
      "max": [
        0.9993767738342285,
        0.9990913271903992,
        0.9999611973762512
      ],
      "min": [
        -0.9996106028556824,
        -0.9999457001686096,
        -0.9999779462814331
      ],
      "type": "VEC3"
    },
    {
      "bufferView": 3,
      "byteOffset": 1576416,
      "componentType": 5126,
      "count": 17616,
      "max": [
        0.9995391964912415,
        0.9999877214431763,
        0.9996998310089111,
        1.0
      ],
      "min": [
        -0.9999825954437256,
        -0.9994635581970215,
        -0.9988799691200256,
        -1.0
      ],
      "type": "VEC4"
    },
    {
      "bufferView": 1,
      "byteOffset": 788208,
      "componentType": 5126,
      "count": 17616,
      "max": [
        0.9990253448486328,
        0.999494731426239
      ],
      "min": [
        0.0004950396250933409,
        0.0009746551513671875
      ],
      "type": "VEC2"
    },
    {
      "bufferView": 0,
      "byteOffset": 2031468,
      "componentType": 5125,
      "count": 94392,
      "type": "SCALAR"
    }
  ],
  "asset": {
    "extras": {
      "author": "Mualzavata (https://sketchfab.com/msta2219)",
      "license": "CC-BY-4.0 (http://creativecommons.org/licenses/by/4.0/)",
      "source": "https://sketchfab.com/3d-models/aegis-of-champions-be25c575619641c2a562cbbc7727da76",
      "title": "Aegis of champions"
    },
    "generator": "Sketchfab-12.66.0",
    "version": "2.0"
  },
  "bufferViews": [
    {
      "buffer": 0,
      "byteLength": 2409036,
      "name": "floatBufferViews",
      "target": 34963
    },
    {
      "buffer": 0,
      "byteLength": 929136,
      "byteOffset": 2409036,
      "byteStride": 8,
      "name": "floatBufferViews",
      "target": 34962
    },
    {
      "buffer": 0,
      "byteLength": 2787408,
      "byteOffset": 3338172,
      "byteStride": 12,
      "name": "floatBufferViews",
      "target": 34962
    },
    {
      "buffer": 0,
      "byteLength": 1858272,
      "byteOffset": 6125580,
      "byteStride": 16,
      "name": "floatBufferViews",
      "target": 34962
    }
  ],
  "buffers": [
    {
      "byteLength": 7983852,
      "uri": "scene.bin"
    }
  ],
  "images": [
    {
      "uri": "textures/FrontTip_baseColor.png"
    },
    {
      "uri": "textures/FrontTip_metallicRoughness.png"
    },
    {
      "uri": "textures/FrontTip_normal.png"
    },
    {
      "uri": "textures/Ageis_baseColor.png"
    },
    {
      "uri": "textures/Ageis_metallicRoughness.png"
    },
    {
      "uri": "textures/Ageis_normal.png"
    },
    {
      "uri": "textures/Shield_baseColor.png"
    },
    {
      "uri": "textures/Shield_metallicRoughness.png"
    },
    {
      "uri": "textures/Shield_normal.png"
    },
    {
      "uri": "textures/BackDecor_baseColor.png"
    },
    {
      "uri": "textures/BackDecor_metallicRoughness.png"
    },
    {
      "uri": "textures/BackDecor_normal.png"
    },
    {
      "uri": "textures/BackPlate_baseColor.png"
    },
    {
      "uri": "textures/BackPlate_metallicRoughness.png"
    },
    {
      "uri": "textures/BackPlate_normal.png"
    },
    {
      "uri": "textures/BackCover_baseColor.png"
    },
    {
      "uri": "textures/BackCover_metallicRoughness.png"
    },
    {
      "uri": "textures/BackCover_normal.png"
    }
  ],
  "materials": [
    {
      "doubleSided": true,
      "name": "FrontTip",
      "normalTexture": {
        "index": 2
      },
      "pbrMetallicRoughness": {
        "baseColorTexture": {
          "index": 0
        },
        "metallicRoughnessTexture": {
          "index": 1
        }
      }
    },
    {
      "doubleSided": true,
      "name": "Ageis",
      "normalTexture": {
        "index": 5
      },
      "pbrMetallicRoughness": {
        "baseColorTexture": {
          "index": 3
        },
        "metallicRoughnessTexture": {
          "index": 4
        }
      }
    },
    {
      "doubleSided": true,
      "name": "Shield",
      "normalTexture": {
        "index": 8
      },
      "pbrMetallicRoughness": {
        "baseColorTexture": {
          "index": 6
        },
        "metallicRoughnessTexture": {
          "index": 7
        }
      }
    },
    {
      "doubleSided": true,
      "name": "BackDecor",
      "normalTexture": {
        "index": 11
      },
      "pbrMetallicRoughness": {
        "baseColorTexture": {
          "index": 9
        },
        "metallicRoughnessTexture": {
          "index": 10
        }
      }
    },
    {
      "doubleSided": true,
      "name": "BackPlate",
      "normalTexture": {
        "index": 14
      },
      "pbrMetallicRoughness": {
        "baseColorTexture": {
          "index": 12
        },
        "metallicRoughnessTexture": {
          "index": 13
        }
      }
    },
    {
      "doubleSided": true,
      "name": "BackCover",
      "normalTexture": {
        "index": 17
      },
      "pbrMetallicRoughness": {
        "baseColorTexture": {
          "index": 15
        },
        "metallicRoughnessTexture": {
          "index": 16
        }
      }
    }
  ],
  "meshes": [
    {
      "name": "FrontTip_FrontTip_0",
      "primitives": [
        {
          "attributes": {
            "NORMAL": 1,
            "POSITION": 0,
            "TANGENT": 2,
            "TEXCOORD_0": 3
          },
          "indices": 4,
          "material": 0,
          "mode": 4
        }
      ]
    },
    {
      "name": "Ageis_Ageis_0",
      "primitives": [
        {
          "attributes": {
            "NORMAL": 6,
            "POSITION": 5,
            "TANGENT": 7,
            "TEXCOORD_0": 8
          },
          "indices": 9,
          "material": 1,
          "mode": 4
        }
      ]
    },
    {
      "name": "Shield1_Shield_0",
      "primitives": [
        {
          "attributes": {
            "NORMAL": 11,
            "POSITION": 10,
            "TANGENT": 12,
            "TEXCOORD_0": 13
          },
          "indices": 14,
          "material": 2,
          "mode": 4
        }
      ]
    },
    {
      "name": "BackDecor_BackDecor_0",
      "primitives": [
        {
          "attributes": {
            "NORMAL": 16,
            "POSITION": 15,
            "TANGENT": 17,
            "TEXCOORD_0": 18
          },
          "indices": 19,
          "material": 3,
          "mode": 4
        }
      ]
    },
    {
      "name": "BackPlate_BackPlate_0",
      "primitives": [
        {
          "attributes": {
            "NORMAL": 21,
            "POSITION": 20,
            "TANGENT": 22,
            "TEXCOORD_0": 23
          },
          "indices": 24,
          "material": 4,
          "mode": 4
        }
      ]
    },
    {
      "name": "BackCover_BackCover_0",
      "primitives": [
        {
          "attributes": {
            "NORMAL": 26,
            "POSITION": 25,
            "TANGENT": 27,
            "TEXCOORD_0": 28
          },
          "indices": 29,
          "material": 5,
          "mode": 4
        }
      ]
    }
  ],
  "nodes": [
    {
      "children": [
        1
      ],
      "matrix": [
        0.01833810657262802,
        0.0,
        0.0,
        0.0,
        0.0,
        4.071877628992309e-18,
        -0.01833810657262802,
        0.0,
        0.0,
        0.01833810657262802,
        4.071877628992309e-18,
        0.0,
        0.0,
        0.0,
        0.0,
        1.0
      ],
      "name": "Sketchfab_model"
    },
    {
      "children": [
        2
      ],
      "matrix": [
        1.0,
        0.0,
        0.0,
        0.0,
        0.0,
        0.0,
        1.0,
        0.0,
        0.0,
        -1.0,
        0.0,
        0.0,
        0.0,
        0.0,
        0.0,
        1.0
      ],
      "name": "f640aa055c614891853286a390cbb7bb.fbx"
    },
    {
      "children": [
        3,
        5,
        7,
        9,
        11,
        13,
        15
      ],
      "name": "RootNode"
    },
    {
      "children": [
        4
      ],
      "matrix": [
        0.5107895181849698,
        -0.07596212506541292,
        -0.8563432861113078,
        0.0,
        0.03891308870329154,
        0.9971107037613961,
        -0.06523814813453244,
        0.0,
        0.858824685043424,
        2.0816681711721685e-17,
        0.5122696168621206,
        0.0,
        -120.36714935302734,
        49.36265182495117,
        164.50477600097656,
        1.0
      ],
      "name": "CINEMA_4D_Editor"
    },
    {
      "name": "Object_4"
    },
    {
      "children": [
        6
      ],
      "name": "FrontTip"
    },
    {
      "mesh": 0,
      "name": "FrontTip_FrontTip_0"
    },
    {
      "children": [
        8
      ],
      "name": "Ageis"
    },
    {
      "mesh": 1,
      "name": "Ageis_Ageis_0"
    },
    {
      "children": [
        10
      ],
      "name": "Shield1"
    },
    {
      "mesh": 2,
      "name": "Shield1_Shield_0"
    },
    {
      "children": [
        12
      ],
      "name": "BackDecor"
    },
    {
      "mesh": 3,
      "name": "BackDecor_BackDecor_0"
    },
    {
      "children": [
        14
      ],
      "name": "BackPlate"
    },
    {
      "mesh": 4,
      "name": "BackPlate_BackPlate_0"
    },
    {
      "children": [
        16
      ],
      "name": "BackCover"
    },
    {
      "mesh": 5,
      "name": "BackCover_BackCover_0"
    }
  ],
  "samplers": [
    {
      "magFilter": 9729,
      "minFilter": 9987,
      "wrapS": 10497,
      "wrapT": 10497
    }
  ],
  "scene": 0,
  "scenes": [
    {
      "name": "Sketchfab_Scene",
      "nodes": [
        0
      ]
    }
  ],
  "textures": [
    {
      "sampler": 0,
      "source": 0
    },
    {
      "sampler": 0,
      "source": 1
    },
    {
      "sampler": 0,
      "source": 2
    },
    {
      "sampler": 0,
      "source": 3
    },
    {
      "sampler": 0,
      "source": 4
    },
    {
      "sampler": 0,
      "source": 5
    },
    {
      "sampler": 0,
      "source": 6
    },
    {
      "sampler": 0,
      "source": 7
    },
    {
      "sampler": 0,
      "source": 8
    },
    {
      "sampler": 0,
      "source": 9
    },
    {
      "sampler": 0,
      "source": 10
    },
    {
      "sampler": 0,
      "source": 11
    },
    {
      "sampler": 0,
      "source": 12
    },
    {
      "sampler": 0,
      "source": 13
    },
    {
      "sampler": 0,
      "source": 14
    },
    {
      "sampler": 0,
      "source": 15
    },
    {
      "sampler": 0,
      "source": 16
    },
    {
      "sampler": 0,
      "source": 17
    }
  ]
}
